inDegrees=no
num_controls=7
num_derivatives=13
num_iterations=118
num_multipliers=7
num_parameters=0
num_slacks=7
num_states=26
objective=0.445896
objective_accelerations=0.057583
objective_balance=0.003494
objective_effort=0.022819
objective_height=0.356470
objective_ligament=0.005530
solver_duration=1587.184821
status=Solve_Succeeded
success=true
DataType=double
version=3
OpenSimVersion=4.5
endheader
time	/jointset/ground_pelvis/pelvis_tilt/value	/jointset/ground_pelvis/pelvis_tx/value	/jointset/ground_pelvis/pelvis_ty/value	/jointset/hip_l/hip_flexion_l/value	/jointset/hip_l/hip_adduction_l/value	/jointset/hip_l/hip_rotation_l/value	/jointset/back/lumbar_extension/value	/jointset/patellofemoral_l/patellar_flexion_l/value	/jointset/knee_l/knee_flexion_l/value	/jointset/knee_l/knee_adduction_l/value	/jointset/knee_l/knee_rotation_l/value	/jointset/ankle_l/ankle_angle_l/value	/jointset/subtalar_l/subtalar_angle_l/value	/jointset/ground_pelvis/pelvis_tilt/speed	/jointset/ground_pelvis/pelvis_tx/speed	/jointset/ground_pelvis/pelvis_ty/speed	/jointset/hip_l/hip_flexion_l/speed	/jointset/hip_l/hip_adduction_l/speed	/jointset/hip_l/hip_rotation_l/speed	/jointset/back/lumbar_extension/speed	/jointset/patellofemoral_l/patellar_flexion_l/speed	/jointset/knee_l/knee_flexion_l/speed	/jointset/knee_l/knee_adduction_l/speed	/jointset/knee_l/knee_rotation_l/speed	/jointset/ankle_l/ankle_angle_l/speed	/jointset/subtalar_l/subtalar_angle_l/speed	/forceset/tau_hip_flexion_l	/forceset/tau_hip_adduction_l	/forceset/tau_hip_rotation_l	/forceset/tau_knee_flexion_l	/forceset/tau_ankle_angle_l	/forceset/tau_subtalar_angle_l	/forceset/tau_lumbar_extension	lambda_cid13_p0	lambda_cid13_p1	lambda_cid13_p2	lambda_cid13_p3	lambda_cid13_p4	lambda_cid13_p5	lambda_cid14_p0	/jointset/ground_pelvis/pelvis_tilt/accel	/jointset/ground_pelvis/pelvis_tx/accel	/jointset/ground_pelvis/pelvis_ty/accel	/jointset/hip_l/hip_flexion_l/accel	/jointset/hip_l/hip_adduction_l/accel	/jointset/hip_l/hip_rotation_l/accel	/jointset/back/lumbar_extension/accel	/jointset/patellofemoral_l/patellar_flexion_l/accel	/jointset/knee_l/knee_flexion_l/accel	/jointset/knee_l/knee_adduction_l/accel	/jointset/knee_l/knee_rotation_l/accel	/jointset/ankle_l/ankle_angle_l/accel	/jointset/subtalar_l/subtalar_angle_l/accel	gamma_cid13_p0	gamma_cid13_p1	gamma_cid13_p2	gamma_cid13_p3	gamma_cid13_p4	gamma_cid13_p5	gamma_cid14_p0
1	-0.5418678914282589	-0.07765962734708098	0.5748485289689952	1.825154776160843	-0.4681884459321743	0.01320954265364503	-0.2617234511427923	1.389946207160821	1.389946207160747	-0.08152785793960425	-0.1745155300149836	0.2290412159774351	-0.005810622240084546	-0.01540805838777224	0.0115690880577188	0.004072692972318522	-0.008172386069032289	-0.002665601669994868	0.0008915539161173524	0.0003851901081413181	-0.00143089746675222	-0.001430897466752025	-0.004602847543927133	-0.0003553336988237711	0.02165172471204552	0.00938652648390028	-0.3303558428949136	0.01718299113688401	0.0002093669928208204	-0.3061838844070713	0.0330490271478948	0.02902877003165886	0.2827402542834758	-29.2794194750526	-8.064466658709851	1.61671756975075	8.201797329555697	-642.4329041842434	-46.89989621660522	-1.301235364496354	1.515023117057658	0.2280460200631574	1.964449198433386	-6.788041912721056	-0.07244690298966511	-2.333793319927421	-0.01772128336632799	-5.320281686753505	-5.32028168675325	-0.617099849146461	-0.02979765117798212	-0.7295448163361361	-0.4898843168756137	6.402082097934379e-09	2.378952543652296e-08	-1.057207365542805e-08	3.674317997549791e-09	-1.084154718988311e-09	2.675582118876746e-08	3.252799142295541e-09
1.01	-0.5419471632641807	-0.07753260273263735	0.5749873249596539	1.824735005743502	-0.4682175543737887	0.01310074456409026	-0.2617195226682589	1.389666010994015	1.389666010994075	-0.08160188466159915	-0.1745189808521566	0.2292214266375776	-0.005739621774586092	-0.0004477264478221046	0.01383658574414115	0.02368198816413177	-0.07576683531592086	-0.003136795231542581	-0.02263081725332305	0.0003969942145908453	-0.05460686730205486	-0.05460686730206335	-0.01019487364327472	-0.0003032912942835786	0.01438436048542443	0.004834368071858469	-0.330199521291816	0.0173026533814953	0.0001934073868797777	-0.3060345181281665	0.03289664880187051	0.02904547840969065	0.2826147932322077	-29.31363855372418	-8.069888048367519	1.622329535845925	8.148127189785022	-642.2533664672744	-46.91525790947787	-1.306789334658482	1.486324488260757	0.2262152683426034	1.95848991785354	-6.742918444666242	-0.03156386143323828	-2.358410692480967	0.01010466985715993	-5.316032648764362	-5.316032648765837	-0.5291126997807933	0.02744542205858035	-0.7262379699673508	-0.4347678794175966	-1.288844422562379e-09	1.646516343233517e-08	3.220120822041491e-08	4.929586782311035e-09	-1.096225094957328e-08	7.556083039966718e-08	-8.354552590645445e-09
1.02	-0.5418768745295434	-0.07738288041624722	0.5753220779498905	1.823639736430898	-0.4682507964067569	0.01275733242741033	-0.2617155814702173	1.38885409952549	1.388854099525678	-0.08173160338649796	-0.1745209632181569	0.2293287825066242	-0.005713520148417843	0.01450405572401488	0.01610862844701765	0.04326409288788408	-0.1432721651225446	-0.003492319940918259	-0.0460312555039139	0.0003877348093060034	-0.1077739578111862	-0.1077739578112057	-0.01574124812070213	-6.163945821013991e-05	0.007080766493111908	0.000406758617844262	-0.3300431996887008	0.01742231562605617	0.0001774477808910236	-0.3058851518492668	0.03274427045582718	0.02906218678764649	0.2824893321809672	-29.35391248975902	-8.074131979982463	1.627619845554828	8.118822014588511	-642.1586214852666	-46.90905177369122	-1.322465326340756	1.513313163435029	0.2289550233539819	1.959011104821199	-6.770218024668093	-0.0493131325552491	-2.309406736157502	-0.02193398571325953	-5.318505821519242	-5.318505821519463	-0.6079695247624243	0.008124235128683571	-0.7367907694744308	-0.4649745252700857	-9.644343854092309e-09	6.857864365434171e-09	7.422246021565421e-08	5.61771437809655e-09	-2.114225774245157e-08	1.244380087104201e-07	-2.051853775400435e-08
1.03	-0.5416570689006378	-0.07721038198617729	0.5758524380718663	1.821870003966505	-0.4682869654631522	0.01218059888074346	-0.2617118534749163	1.387510653468301	1.387510653468329	-0.08191654144364388	-0.1745195914302337	0.229362844730975	-0.00573104820668869	0.02945899320674535	0.01839499586857754	0.06279561503735404	-0.2106441648325985	-0.003716167703630436	-0.06928722463530809	0.0003536648642958117	-0.1609048421445981	-0.1609048421446144	-0.02123591829714636	0.000368499366551683	-0.0002817957838456661	-0.003887816502554395	-0.32957773760537	0.01758635664967544	0.000129134306985124	-0.305602220214649	0.03269057099450447	0.02914511090423448	0.28215109086883	-29.34151345561907	-8.124671872718109	1.6497896002212	8.010927072679902	-641.7540505373713	-46.96779558566246	-1.348465315719491	1.486869109508574	0.2290696109760456	1.948368972729719	-6.716170526437544	-0.005132842855830056	-2.329477893956709	0.005226592917615792	-5.308811405459346	-5.308811405458677	-0.5186606584899357	0.0653633783754545	-0.7380093762901843	-0.4080292286851829	-1.800662464185727e-08	-2.772729977616983e-09	1.162360384366016e-07	6.300054818892513e-09	-3.132534525535325e-08	1.733159234405594e-07	-3.268820285032671e-08
1.04	-0.5412876568831433	-0.07701490148000789	0.5765777426558808	1.819427455588565	-0.4683246154461186	0.01137214846431079	-0.2617085921606987	1.385636212234533	1.385636212234399	-0.08215611518142477	-0.1745129373196647	0.2293228772486602	-0.005790788060815557	0.04442533344213866	0.02070504366690865	0.08225298529562811	-0.27783534783319	-0.003788505255419014	-0.09237462945975911	0.0002943985917898693	-0.2139729931262968	-0.2139729931263081	-0.02666838424977178	0.0009948250803290021	-0.007725174840154151	-0.008035600553373675	-0.3291122755219923	0.01775039767333439	8.082083318882544e-05	-0.3053192885800325	0.03263687153318517	0.02922803502087435	0.2818128495567348	-29.3351861497828	-8.173960427647977	1.671544925393449	7.927625249349414	-641.434581283727	-47.00568347768989	-1.38505840275281	1.515593713967589	0.2336910987082391	1.944180726582019	-6.734054682775603	-0.01901109037058528	-2.275693874768918	-0.02697325121245657	-5.305959151176587	-5.305959151176463	-0.5955286799986853	0.04736161293167411	-0.752954125344604	-0.4356163113542774	-2.589461408533383e-08	-1.148325308137723e-08	1.577118035012239e-07	7.432949315087395e-09	-4.129832695999909e-08	2.193138213310315e-07	-4.412656149064442e-08
1.05	-0.5407684754735937	-0.07679616361439046	0.5774971758319856	1.816314024095574	-0.4683621895537453	0.01033374214679863	-0.2617060537801035	1.383231496599597	1.383231496599592	-0.08244969242807942	-0.1744990601306471	0.2292080109781889	-0.005891250611442261	0.05941637212193514	0.02305013703275326	0.1016138745254785	-0.3448070220488117	-0.003694720835853451	-0.1152702806423928	0.0002100497684099826	-0.266950733864953	-0.2669507338650122	-0.03203297114911435	0.001815270802299382	-0.01526710666549446	-0.01202725439489012	-0.328356000133437	0.0179417763692558	4.29544494252402e-07	-0.3049042016273147	0.03268152412710233	0.02938871467012345	0.2812791461322889	-29.27670633265748	-8.275275402124532	1.712018320404151	7.757949595817234	-640.820355543558	-47.11999977836106	-1.432686950906446	1.491666961564346	0.2360613195758247	1.929066357580484	-6.672141015984993	0.02829286859400356	-2.291082688300582	0.0003501381181063527	-5.290760311967103	-5.290760311974378	-0.5048299414205965	0.1046341080055652	-0.7576664843859439	-0.3765119169356221	-3.376778192430137e-08	-2.016502395890965e-08	1.991707619047111e-07	8.57992362551349e-09	-5.126474285813695e-08	2.652217186952641e-07	-5.554206680421199e-08
1.06	-0.5400992220739329	-0.07655374624230392	0.5786096225676677	1.812532192415423	-0.4683978818850811	0.009067462927820777	-0.2617044557205326	1.380297587801919	1.380297587802042	-0.08279649679301652	-0.1744759288732035	0.2290171546348136	-0.00603074409976118	0.07443973146487977	0.02544094496073356	0.1208556972110981	-0.4115153852656132	-0.003412149997345459	-0.1379492097566291	0.0001063343857888316	-0.3198116256738877	-0.3198116256739965	-0.03731380790919925	0.0028456387712995	-0.02292318942112273	-0.01584178809182066	-0.3275997247448555	0.01813315506522346	-7.996174408214398e-05	-0.3044891146745959	0.03272617672102861	0.02954939431943622	0.2807454427078614	-29.22434726270411	-8.37529655850604	1.752031805633292	7.61298783075273	-640.2918073477135	-47.2146641442866	-1.491858380269099	1.522057846597208	0.242834011135398	1.920367417735841	-6.681392483011586	0.01874619341781337	-2.232349461089536	-0.03084656306073223	-5.282589365232267	-5.282589365232477	-0.5787786521471889	0.08934606233745324	-0.7757843114021753	-0.4001922824371968	-4.066988360654403e-08	-2.686459977719591e-08	2.40020544342376e-07	1.023648276358997e-08	-6.048192217277838e-08	3.069705914743756e-07	-6.582907232350856e-08
1.07	-0.5392795177188722	-0.07628715453613431	0.579913815628559	1.80808471975565	-0.4684297542944424	0.007575590389872758	-0.2617040071119163	1.376835762170297	1.376835762170551	-0.08319568784694818	-0.1744414388469692	0.2287491209260955	-0.006207457860664608	0.08951022447457214	0.0278885297142509	0.1399554337469838	-0.4779208252242931	-0.002922550311430299	-0.1603771362724297	-1.945647024499957e-05	-0.372523737046936	-0.3725237370469986	-0.04250577343808191	0.004094091493450507	-0.03070628329757114	-0.01946277952258342	-0.3265474649933736	0.01837407247684797	-0.0001924358261295702	-0.3039364058891773	0.03288141063833275	0.02976676513828542	0.2800108750210147	-29.11571258951558	-8.517420472702835	1.807470932412405	7.38096806179164	-639.4581434099086	-47.36300572276784	-1.563247542315594	1.500900370614044	0.2473931315213851	1.900640526851247	-6.61138028981821	0.07000532355034594	-2.240838354123392	-0.003871918101429969	-5.261042126859008	-5.261042126851938	-0.4866386933421987	0.1489224028620987	-0.7829811394007604	-0.3373527027597499	-4.752033283364174e-08	-3.345873968807544e-08	2.808379238031354e-07	1.192014747760529e-08	-6.965924847765936e-08	3.484982395415126e-07	-7.605605125800347e-08
1.08	-0.5383088373652254	-0.07599575249761721	0.5814081788058765	1.80297494058878	-0.468455543013471	0.005860873765315452	-0.2617049017260986	1.372847711404239	1.372847711404628	-0.08364624519417825	-0.17439319878837	0.2284025744358862	-0.006419241561748499	0.1046349311826173	0.03040301143023335	0.1588897204963343	-0.5439766866838522	-0.002195411930641309	-0.1825180270801559	-0.0001623101753429643	-0.4250566525606996	-0.425056652560715	-0.04758706657030164	0.005595645243924795	-0.03862574571940287	-0.02285577612790573	-0.3254952052419104	0.01861498988848624	-0.0003049099081164599	-0.3033836971037555	0.03303664455564401	0.02998413595715581	0.279276307334144	-29.01326227486003	-8.658230651904574	1.862436958058191	7.173583757964623	-638.7109045483597	-47.49337758788684	-1.647587168532479	1.532900586267758	0.2562134036284398	1.887277460428812	-6.61147678318744	0.06625393239249069	-2.174942319474733	-0.03425913287354349	-5.246750193375285	-5.246750193375312	-0.5566441728146406	0.1399662680019384	-0.8030580204788184	-0.3545933173492055	-5.364465379112396e-08	-3.907289538939443e-08	3.198341383595394e-07	1.396768991235293e-08	-7.813980211575429e-08	3.843639051893171e-07	-8.511709998776579e-08
